<?xml version="1.0" standalone="no"?><!DOCTYPE svg PUBLIC "-//W3C//DTD SVG 1.1//EN" "http://www.w3.org/Graphics/SVG/1.1/DTD/svg11.dtd"><svg t="1699288093215" class="icon" viewBox="0 0 1212 1024" version="1.1" xmlns="http://www.w3.org/2000/svg" p-id="1072" xmlns:xlink="http://www.w3.org/1999/xlink" width="236.71875" height="200"><path d="M1083.287669 31.40989a94.687872 94.687872 0 0 0-77.999589-19.590594h-5.80462l-248.873105 92.873928a16.325495 16.325495 0 0 1-8.344142 0L419.384196 4.56352A93.599506 93.599506 0 0 0 362.789146 4.200731L66.753499 95.260716A94.325084 94.325084 0 0 0 0.000363 185.595123v725.577566a93.962295 93.962295 0 0 0 121.897031 89.971618l263.384656-80.53911a25.032426 25.032426 0 0 1 12.697608 0l315.626241 97.227394a36.278878 36.278878 0 0 0 17.77665 5.079043h15.599918a99.404127 99.404127 0 0 0 18.139439 0h5.079043l108.836635-38.455611a36.278878 36.278878 0 1 0-24.306849-68.204292l-88.157674 31.199836V175.074248h4.353465l249.235894-91.422773a21.767327 21.767327 0 0 1 23.581271 21.767327v358.072528a36.278878 36.278878 0 0 0 72.557757 0v-359.160895a94.325084 94.325084 0 0 0-33.013779-72.920545zM100.855645 931.851649a21.041749 21.041749 0 0 1-19.590595-3.265099 21.404538 21.404538 0 0 1-8.706931-17.413861v-725.577566a21.041749 21.041749 0 0 1 15.237129-20.678961l250.687049-76.911222v771.288953z m310.184409-82.353054V77.846854l284.063617 87.432097V936.205115l-275.719475-84.892576z" p-id="1073"></path><path d="M1201.556812 878.158909l-54.055529-53.329951a30.111469 30.111469 0 0 0-8.344142-5.441832 158.175909 158.175909 0 1 0-48.250908 48.613697 43.171865 43.171865 0 0 0 5.804621 8.344142l54.055528 53.329951a36.278878 36.278878 0 0 0 25.395215 10.520875 36.278878 36.278878 0 0 0 25.758004-10.520875 36.278878 36.278878 0 0 0-0.362789-51.516007z m-194.817577-57.683416a84.529786 84.529786 0 1 1 84.529787-84.529787 84.529786 84.529786 0 0 1-84.529787 84.529787z" fill="#00AA72" p-id="1074"></path></svg>